<svg id="visual" viewBox="0 0 900 900" xmlns="http://www.w3.org/2000/svg" xmlns:xlink="http://www.w3.org/1999/xlink" version="1.1"><rect x="0" y="0" width="900" height="900" fill="#2a1107"></rect><path d="M0 829L6.5 828.7C13 828.3 26 827.7 39 827.2C52 826.7 65 826.3 78 827.8C91 829.3 104 832.7 117.2 834.5C130.3 836.3 143.7 836.7 156.8 835C170 833.3 183 829.7 196 826.2C209 822.7 222 819.3 235 818.5C248 817.7 261 819.3 274 822.3C287 825.3 300 829.7 313 831.8C326 834 339 834 352 835.3C365 836.7 378 839.3 391 840C404 840.7 417 839.3 430.2 836C443.3 832.7 456.7 827.3 469.8 825.3C483 823.3 496 824.7 509 828.2C522 831.7 535 837.3 548 838.2C561 839 574 835 587 834.8C600 834.7 613 838.3 626 840.2C639 842 652 842 665 840.3C678 838.7 691 835.3 704 831.8C717 828.3 730 824.7 743.2 822.7C756.3 820.7 769.7 820.3 782.8 820.3C796 820.3 809 820.7 822 822C835 823.3 848 825.7 861 829C874 832.3 887 836.7 893.5 838.8L900 841L900 0L893.5 0C887 0 874 0 861 0C848 0 835 0 822 0C809 0 796 0 782.8 0C769.7 0 756.3 0 743.2 0C730 0 717 0 704 0C691 0 678 0 665 0C652 0 639 0 626 0C613 0 600 0 587 0C574 0 561 0 548 0C535 0 522 0 509 0C496 0 483 0 469.8 0C456.7 0 443.3 0 430.2 0C417 0 404 0 391 0C378 0 365 0 352 0C339 0 326 0 313 0C300 0 287 0 274 0C261 0 248 0 235 0C222 0 209 0 196 0C183 0 170 0 156.8 0C143.7 0 130.3 0 117.2 0C104 0 91 0 78 0C65 0 52 0 39 0C26 0 13 0 6.5 0L0 0Z" fill="#9da31b"></path><path d="M0 763L6.5 762.5C13 762 26 761 39 762C52 763 65 766 78 764.3C91 762.7 104 756.3 117.2 753.7C130.3 751 143.7 752 156.8 752.8C170 753.7 183 754.3 196 755.2C209 756 222 757 235 758.2C248 759.3 261 760.7 274 761.7C287 762.7 300 763.3 313 763.3C326 763.3 339 762.7 352 760C365 757.3 378 752.7 391 751.7C404 750.7 417 753.3 430.2 754.5C443.3 755.7 456.7 755.3 469.8 757C483 758.7 496 762.3 509 762.5C522 762.7 535 759.3 548 757.8C561 756.3 574 756.7 587 758.3C600 760 613 763 626 765.7C639 768.3 652 770.7 665 770.5C678 770.3 691 767.7 704 763.3C717 759 730 753 743.2 752C756.3 751 769.7 755 782.8 759.2C796 763.3 809 767.7 822 767.8C835 768 848 764 861 762.3C874 760.7 887 761.3 893.5 761.7L900 762L900 0L893.5 0C887 0 874 0 861 0C848 0 835 0 822 0C809 0 796 0 782.8 0C769.7 0 756.3 0 743.2 0C730 0 717 0 704 0C691 0 678 0 665 0C652 0 639 0 626 0C613 0 600 0 587 0C574 0 561 0 548 0C535 0 522 0 509 0C496 0 483 0 469.8 0C456.7 0 443.3 0 430.2 0C417 0 404 0 391 0C378 0 365 0 352 0C339 0 326 0 313 0C300 0 287 0 274 0C261 0 248 0 235 0C222 0 209 0 196 0C183 0 170 0 156.8 0C143.7 0 130.3 0 117.2 0C104 0 91 0 78 0C65 0 52 0 39 0C26 0 13 0 6.5 0L0 0Z" fill="#b6bd1f"></path><path d="M0 682L6.5 681.8C13 681.7 26 681.3 39 680.7C52 680 65 679 78 679C91 679 104 680 117.2 680.5C130.3 681 143.7 681 156.8 683.5C170 686 183 691 196 692C209 693 222 690 235 688.8C248 687.7 261 688.3 274 688.5C287 688.7 300 688.3 313 687.5C326 686.7 339 685.3 352 686.5C365 687.7 378 691.3 391 690.8C404 690.3 417 685.7 430.2 684.2C443.3 682.7 456.7 684.3 469.8 687.2C483 690 496 694 509 695.2C522 696.3 535 694.7 548 693.2C561 691.7 574 690.3 587 691.3C600 692.3 613 695.7 626 697.7C639 699.7 652 700.3 665 699.7C678 699 691 697 704 697C717 697 730 699 743.2 700.3C756.3 701.7 769.7 702.3 782.8 700.5C796 698.7 809 694.3 822 692.8C835 691.3 848 692.7 861 695.2C874 697.7 887 701.3 893.5 703.2L900 705L900 0L893.5 0C887 0 874 0 861 0C848 0 835 0 822 0C809 0 796 0 782.8 0C769.7 0 756.3 0 743.2 0C730 0 717 0 704 0C691 0 678 0 665 0C652 0 639 0 626 0C613 0 600 0 587 0C574 0 561 0 548 0C535 0 522 0 509 0C496 0 483 0 469.8 0C456.7 0 443.3 0 430.2 0C417 0 404 0 391 0C378 0 365 0 352 0C339 0 326 0 313 0C300 0 287 0 274 0C261 0 248 0 235 0C222 0 209 0 196 0C183 0 170 0 156.8 0C143.7 0 130.3 0 117.2 0C104 0 91 0 78 0C65 0 52 0 39 0C26 0 13 0 6.5 0L0 0Z" fill="#d1d922"></path><path d="M0 616L6.5 616.3C13 616.7 26 617.3 39 620.2C52 623 65 628 78 629.8C91 631.7 104 630.3 117.2 628.7C130.3 627 143.7 625 156.8 626C170 627 183 631 196 632.7C209 634.3 222 633.7 235 630C248 626.3 261 619.7 274 616.3C287 613 300 613 313 613.5C326 614 339 615 352 614.7C365 614.3 378 612.7 391 614.8C404 617 417 623 430.2 626.8C443.3 630.7 456.7 632.3 469.8 632.7C483 633 496 632 509 628.7C522 625.3 535 619.7 548 619C561 618.3 574 622.7 587 623.5C600 624.3 613 621.7 626 619.8C639 618 652 617 665 615.3C678 613.7 691 611.3 704 614C717 616.7 730 624.3 743.2 628.5C756.3 632.7 769.7 633.3 782.8 632C796 630.7 809 627.3 822 625.7C835 624 848 624 861 624.8C874 625.7 887 627.3 893.5 628.2L900 629L900 0L893.5 0C887 0 874 0 861 0C848 0 835 0 822 0C809 0 796 0 782.8 0C769.7 0 756.3 0 743.2 0C730 0 717 0 704 0C691 0 678 0 665 0C652 0 639 0 626 0C613 0 600 0 587 0C574 0 561 0 548 0C535 0 522 0 509 0C496 0 483 0 469.8 0C456.7 0 443.3 0 430.2 0C417 0 404 0 391 0C378 0 365 0 352 0C339 0 326 0 313 0C300 0 287 0 274 0C261 0 248 0 235 0C222 0 209 0 196 0C183 0 170 0 156.8 0C143.7 0 130.3 0 117.2 0C104 0 91 0 78 0C65 0 52 0 39 0C26 0 13 0 6.5 0L0 0Z" fill="#dce247"></path><path d="M0 550L6.5 551.7C13 553.3 26 556.7 39 558.5C52 560.3 65 560.7 78 558.7C91 556.7 104 552.3 117.2 551C130.3 549.7 143.7 551.3 156.8 551.3C170 551.3 183 549.7 196 548.5C209 547.3 222 546.7 235 547.2C248 547.7 261 549.3 274 550.7C287 552 300 553 313 553.7C326 554.3 339 554.7 352 555.8C365 557 378 559 391 558.3C404 557.7 417 554.3 430.2 555C443.3 555.7 456.7 560.3 469.8 561.7C483 563 496 561 509 558C522 555 535 551 548 548.8C561 546.7 574 546.3 587 547C600 547.7 613 549.3 626 551.2C639 553 652 555 665 557.2C678 559.3 691 561.7 704 561.5C717 561.3 730 558.7 743.2 556.7C756.3 554.7 769.7 553.3 782.8 552.7C796 552 809 552 822 550.3C835 548.7 848 545.3 861 545.7C874 546 887 550 893.5 552L900 554L900 0L893.5 0C887 0 874 0 861 0C848 0 835 0 822 0C809 0 796 0 782.8 0C769.7 0 756.3 0 743.2 0C730 0 717 0 704 0C691 0 678 0 665 0C652 0 639 0 626 0C613 0 600 0 587 0C574 0 561 0 548 0C535 0 522 0 509 0C496 0 483 0 469.8 0C456.7 0 443.3 0 430.2 0C417 0 404 0 391 0C378 0 365 0 352 0C339 0 326 0 313 0C300 0 287 0 274 0C261 0 248 0 235 0C222 0 209 0 196 0C183 0 170 0 156.8 0C143.7 0 130.3 0 117.2 0C104 0 91 0 78 0C65 0 52 0 39 0C26 0 13 0 6.5 0L0 0Z" fill="#e2e668"></path><path d="M0 494L6.5 492.7C13 491.3 26 488.7 39 485C52 481.3 65 476.7 78 475C91 473.3 104 474.7 117.2 477.8C130.3 481 143.7 486 156.8 487.5C170 489 183 487 196 488C209 489 222 493 235 491.3C248 489.7 261 482.3 274 482C287 481.7 300 488.3 313 489.8C326 491.3 339 487.7 352 487.2C365 486.7 378 489.3 391 487.7C404 486 417 480 430.2 480C443.3 480 456.7 486 469.8 487C483 488 496 484 509 483.2C522 482.3 535 484.7 548 487C561 489.3 574 491.7 587 489.3C600 487 613 480 626 478.5C639 477 652 481 665 483.2C678 485.3 691 485.7 704 483.3C717 481 730 476 743.2 475.7C756.3 475.3 769.7 479.7 782.8 480.5C796 481.3 809 478.7 822 479.3C835 480 848 484 861 484.7C874 485.3 887 482.7 893.5 481.3L900 480L900 0L893.5 0C887 0 874 0 861 0C848 0 835 0 822 0C809 0 796 0 782.8 0C769.7 0 756.3 0 743.2 0C730 0 717 0 704 0C691 0 678 0 665 0C652 0 639 0 626 0C613 0 600 0 587 0C574 0 561 0 548 0C535 0 522 0 509 0C496 0 483 0 469.8 0C456.7 0 443.3 0 430.2 0C417 0 404 0 391 0C378 0 365 0 352 0C339 0 326 0 313 0C300 0 287 0 274 0C261 0 248 0 235 0C222 0 209 0 196 0C183 0 170 0 156.8 0C143.7 0 130.3 0 117.2 0C104 0 91 0 78 0C65 0 52 0 39 0C26 0 13 0 6.5 0L0 0Z" fill="#e5e874"></path><path d="M0 403L6.5 403C13 403 26 403 39 406.8C52 410.7 65 418.3 78 421.7C91 425 104 424 117.2 421.2C130.3 418.3 143.7 413.7 156.8 410.5C170 407.3 183 405.7 196 407.2C209 408.7 222 413.3 235 416.2C248 419 261 420 274 420.8C287 421.7 300 422.3 313 423C326 423.7 339 424.3 352 420.7C365 417 378 409 391 405.8C404 402.7 417 404.3 430.2 406.5C443.3 408.7 456.7 411.3 469.8 410.8C483 410.3 496 406.7 509 409C522 411.3 535 419.7 548 420.8C561 422 574 416 587 413.8C600 411.7 613 413.3 626 413.7C639 414 652 413 665 411.7C678 410.3 691 408.7 704 410.5C717 412.3 730 417.7 743.2 417.2C756.3 416.7 769.7 410.3 782.8 409.5C796 408.7 809 413.3 822 416.3C835 419.3 848 420.7 861 418C874 415.3 887 408.7 893.5 405.3L900 402L900 0L893.5 0C887 0 874 0 861 0C848 0 835 0 822 0C809 0 796 0 782.8 0C769.7 0 756.3 0 743.2 0C730 0 717 0 704 0C691 0 678 0 665 0C652 0 639 0 626 0C613 0 600 0 587 0C574 0 561 0 548 0C535 0 522 0 509 0C496 0 483 0 469.8 0C456.7 0 443.3 0 430.2 0C417 0 404 0 391 0C378 0 365 0 352 0C339 0 326 0 313 0C300 0 287 0 274 0C261 0 248 0 235 0C222 0 209 0 196 0C183 0 170 0 156.8 0C143.7 0 130.3 0 117.2 0C104 0 91 0 78 0C65 0 52 0 39 0C26 0 13 0 6.5 0L0 0Z" fill="#e5e874"></path><path d="M0 342L6.5 344.2C13 346.3 26 350.7 39 350.7C52 350.7 65 346.3 78 346.7C91 347 104 352 117.2 354C130.3 356 143.7 355 156.8 352.7C170 350.3 183 346.7 196 343.5C209 340.3 222 337.7 235 336.2C248 334.7 261 334.3 274 337.8C287 341.3 300 348.7 313 349C326 349.3 339 342.7 352 338.7C365 334.7 378 333.3 391 333C404 332.7 417 333.3 430.2 337.5C443.3 341.7 456.7 349.3 469.8 350.5C483 351.7 496 346.3 509 344.2C522 342 535 343 548 345C561 347 574 350 587 348.7C600 347.3 613 341.7 626 342.2C639 342.7 652 349.3 665 349.5C678 349.7 691 343.3 704 341C717 338.7 730 340.3 743.2 342.7C756.3 345 769.7 348 782.8 348.5C796 349 809 347 822 345.8C835 344.7 848 344.3 861 344.2C874 344 887 344 893.5 344L900 344L900 0L893.5 0C887 0 874 0 861 0C848 0 835 0 822 0C809 0 796 0 782.8 0C769.7 0 756.3 0 743.2 0C730 0 717 0 704 0C691 0 678 0 665 0C652 0 639 0 626 0C613 0 600 0 587 0C574 0 561 0 548 0C535 0 522 0 509 0C496 0 483 0 469.8 0C456.7 0 443.3 0 430.2 0C417 0 404 0 391 0C378 0 365 0 352 0C339 0 326 0 313 0C300 0 287 0 274 0C261 0 248 0 235 0C222 0 209 0 196 0C183 0 170 0 156.8 0C143.7 0 130.3 0 117.2 0C104 0 91 0 78 0C65 0 52 0 39 0C26 0 13 0 6.5 0L0 0Z" fill="#e2e668"></path><path d="M0 268L6.5 268C13 268 26 268 39 267.7C52 267.3 65 266.7 78 269.8C91 273 104 280 117.2 279.5C130.3 279 143.7 271 156.8 270.7C170 270.3 183 277.7 196 279.2C209 280.7 222 276.3 235 276.7C248 277 261 282 274 282.5C287 283 300 279 313 278.3C326 277.7 339 280.3 352 280.7C365 281 378 279 391 278C404 277 417 277 430.2 277.7C443.3 278.3 456.7 279.7 469.8 281C483 282.3 496 283.7 509 284.7C522 285.7 535 286.3 548 285.7C561 285 574 283 587 282.3C600 281.7 613 282.3 626 283C639 283.7 652 284.3 665 285.3C678 286.3 691 287.7 704 287.5C717 287.3 730 285.7 743.2 281.7C756.3 277.7 769.7 271.3 782.8 269.3C796 267.3 809 269.7 822 269.8C835 270 848 268 861 270.3C874 272.7 887 279.3 893.5 282.7L900 286L900 0L893.5 0C887 0 874 0 861 0C848 0 835 0 822 0C809 0 796 0 782.8 0C769.7 0 756.3 0 743.2 0C730 0 717 0 704 0C691 0 678 0 665 0C652 0 639 0 626 0C613 0 600 0 587 0C574 0 561 0 548 0C535 0 522 0 509 0C496 0 483 0 469.8 0C456.7 0 443.3 0 430.2 0C417 0 404 0 391 0C378 0 365 0 352 0C339 0 326 0 313 0C300 0 287 0 274 0C261 0 248 0 235 0C222 0 209 0 196 0C183 0 170 0 156.8 0C143.7 0 130.3 0 117.2 0C104 0 91 0 78 0C65 0 52 0 39 0C26 0 13 0 6.5 0L0 0Z" fill="#dce247"></path><path d="M0 219L6.5 215C13 211 26 203 39 200.2C52 197.3 65 199.7 78 201.2C91 202.7 104 203.3 117.2 206.2C130.3 209 143.7 214 156.8 216C170 218 183 217 196 214.3C209 211.7 222 207.3 235 205.3C248 203.3 261 203.7 274 205.2C287 206.7 300 209.3 313 210.8C326 212.3 339 212.7 352 210.5C365 208.3 378 203.7 391 203.7C404 203.7 417 208.3 430.2 208.7C443.3 209 456.7 205 469.8 205.8C483 206.7 496 212.3 509 215.3C522 218.3 535 218.7 548 219C561 219.3 574 219.7 587 218.5C600 217.3 613 214.7 626 214.7C639 214.7 652 217.3 665 217.7C678 218 691 216 704 212.7C717 209.3 730 204.7 743.2 205.7C756.3 206.7 769.7 213.3 782.8 214.7C796 216 809 212 822 207.5C835 203 848 198 861 196.5C874 195 887 197 893.5 198L900 199L900 0L893.5 0C887 0 874 0 861 0C848 0 835 0 822 0C809 0 796 0 782.8 0C769.7 0 756.3 0 743.2 0C730 0 717 0 704 0C691 0 678 0 665 0C652 0 639 0 626 0C613 0 600 0 587 0C574 0 561 0 548 0C535 0 522 0 509 0C496 0 483 0 469.8 0C456.7 0 443.3 0 430.2 0C417 0 404 0 391 0C378 0 365 0 352 0C339 0 326 0 313 0C300 0 287 0 274 0C261 0 248 0 235 0C222 0 209 0 196 0C183 0 170 0 156.8 0C143.7 0 130.3 0 117.2 0C104 0 91 0 78 0C65 0 52 0 39 0C26 0 13 0 6.5 0L0 0Z" fill="#d1d922"></path><path d="M0 139L6.5 140.5C13 142 26 145 39 143.7C52 142.3 65 136.7 78 135.5C91 134.3 104 137.7 117.2 139.5C130.3 141.3 143.7 141.7 156.8 141.2C170 140.7 183 139.3 196 137.7C209 136 222 134 235 133.2C248 132.3 261 132.7 274 133.5C287 134.3 300 135.7 313 136.7C326 137.7 339 138.3 352 136.3C365 134.3 378 129.7 391 130.5C404 131.3 417 137.7 430.2 139.5C443.3 141.3 456.7 138.7 469.8 139.7C483 140.7 496 145.3 509 144.7C522 144 535 138 548 134C561 130 574 128 587 128.5C600 129 613 132 626 132.7C639 133.3 652 131.7 665 131.7C678 131.7 691 133.3 704 135.7C717 138 730 141 743.2 142.5C756.3 144 769.7 144 782.8 142.2C796 140.3 809 136.7 822 136.7C835 136.7 848 140.3 861 141C874 141.7 887 139.3 893.5 138.2L900 137L900 0L893.5 0C887 0 874 0 861 0C848 0 835 0 822 0C809 0 796 0 782.8 0C769.7 0 756.3 0 743.2 0C730 0 717 0 704 0C691 0 678 0 665 0C652 0 639 0 626 0C613 0 600 0 587 0C574 0 561 0 548 0C535 0 522 0 509 0C496 0 483 0 469.8 0C456.7 0 443.3 0 430.2 0C417 0 404 0 391 0C378 0 365 0 352 0C339 0 326 0 313 0C300 0 287 0 274 0C261 0 248 0 235 0C222 0 209 0 196 0C183 0 170 0 156.8 0C143.7 0 130.3 0 117.2 0C104 0 91 0 78 0C65 0 52 0 39 0C26 0 13 0 6.5 0L0 0Z" fill="#b6bd1f"></path><path d="M0 61L6.5 61.5C13 62 26 63 39 65.8C52 68.7 65 73.3 78 72.8C91 72.3 104 66.7 117.2 64.3C130.3 62 143.7 63 156.8 66.3C170 69.7 183 75.3 196 74.8C209 74.3 222 67.7 235 64.7C248 61.7 261 62.3 274 64.8C287 67.3 300 71.7 313 73.3C326 75 339 74 352 71.2C365 68.3 378 63.7 391 63.5C404 63.3 417 67.7 430.2 70.2C443.3 72.7 456.7 73.3 469.8 71.8C483 70.3 496 66.7 509 65.3C522 64 535 65 548 65.3C561 65.7 574 65.3 587 63.8C600 62.3 613 59.7 626 61C639 62.3 652 67.7 665 69.5C678 71.3 691 69.7 704 66.7C717 63.7 730 59.3 743.2 59.8C756.3 60.3 769.7 65.7 782.8 66.5C796 67.3 809 63.7 822 61.8C835 60 848 60 861 61.5C874 63 887 66 893.5 67.5L900 69L900 0L893.5 0C887 0 874 0 861 0C848 0 835 0 822 0C809 0 796 0 782.8 0C769.7 0 756.3 0 743.2 0C730 0 717 0 704 0C691 0 678 0 665 0C652 0 639 0 626 0C613 0 600 0 587 0C574 0 561 0 548 0C535 0 522 0 509 0C496 0 483 0 469.8 0C456.7 0 443.3 0 430.2 0C417 0 404 0 391 0C378 0 365 0 352 0C339 0 326 0 313 0C300 0 287 0 274 0C261 0 248 0 235 0C222 0 209 0 196 0C183 0 170 0 156.8 0C143.7 0 130.3 0 117.2 0C104 0 91 0 78 0C65 0 52 0 39 0C26 0 13 0 6.5 0L0 0Z" fill="#9da31b"></path></svg>