<svg id="visual" viewBox="0 0 900 900" xmlns="http://www.w3.org/2000/svg" xmlns:xlink="http://www.w3.org/1999/xlink" version="1.1"><rect x="0" y="0" width="900" height="900" fill="#2a1107"></rect><path d="M0 76L39 76L39 36L78 36L78 72L117 72L117 176L157 176L157 58L196 58L196 238L235 238L235 365L274 365L274 151L313 151L313 213L352 213L352 317L391 317L391 0L430 0L430 91L470 91L470 47L509 47L509 135L548 135L548 133L587 133L587 295L626 295L626 40L665 40L665 300L704 300L704 46L743 46L743 54L783 54L783 326L822 326L822 61L861 61L861 83L900 83L900 342L900 901L900 901L861 901L861 901L822 901L822 901L783 901L783 901L743 901L743 901L704 901L704 901L665 901L665 901L626 901L626 901L587 901L587 901L548 901L548 901L509 901L509 901L470 901L470 901L430 901L430 901L391 901L391 901L352 901L352 901L313 901L313 901L274 901L274 901L235 901L235 901L196 901L196 901L157 901L157 901L117 901L117 901L78 901L78 901L39 901L39 901L0 901Z" fill="#d6de23"></path><path d="M0 354L39 354L39 220L78 220L78 214L117 214L117 222L157 222L157 83L196 83L196 73L235 73L235 111L274 111L274 190L313 190L313 110L352 110L352 386L391 386L391 400L430 400L430 264L470 264L470 77L509 77L509 366L548 366L548 176L587 176L587 116L626 116L626 134L665 134L665 181L704 181L704 211L743 211L743 288L783 288L783 192L822 192L822 314L861 314L861 210L900 210L900 410L900 901L900 901L861 901L861 901L822 901L822 901L783 901L783 901L743 901L743 901L704 901L704 901L665 901L665 901L626 901L626 901L587 901L587 901L548 901L548 901L509 901L509 901L470 901L470 901L430 901L430 901L391 901L391 901L352 901L352 901L313 901L313 901L274 901L274 901L235 901L235 901L196 901L196 901L157 901L157 901L117 901L117 901L78 901L78 901L39 901L39 901L0 901Z" fill="#cad228"></path><path d="M0 248L39 248L39 140L78 140L78 382L117 382L117 337L157 337L157 449L196 449L196 449L235 449L235 318L274 318L274 431L313 431L313 217L352 217L352 253L391 253L391 181L430 181L430 207L470 207L470 346L509 346L509 333L548 333L548 204L587 204L587 241L626 241L626 301L665 301L665 222L704 222L704 157L743 157L743 234L783 234L783 395L822 395L822 340L861 340L861 238L900 238L900 239L900 901L900 901L861 901L861 901L822 901L822 901L783 901L783 901L743 901L743 901L704 901L704 901L665 901L665 901L626 901L626 901L587 901L587 901L548 901L548 901L509 901L509 901L470 901L470 901L430 901L430 901L391 901L391 901L352 901L352 901L313 901L313 901L274 901L274 901L235 901L235 901L196 901L196 901L157 901L157 901L117 901L117 901L78 901L78 901L39 901L39 901L0 901Z" fill="#bdc62b"></path><path d="M0 469L39 469L39 505L78 505L78 241L117 241L117 471L157 471L157 404L196 404L196 401L235 401L235 302L274 302L274 339L313 339L313 436L352 436L352 451L391 451L391 510L430 510L430 465L470 465L470 221L509 221L509 313L548 313L548 234L587 234L587 289L626 289L626 262L665 262L665 385L704 385L704 457L743 457L743 424L783 424L783 299L822 299L822 390L861 390L861 256L900 256L900 385L900 901L900 901L861 901L861 901L822 901L822 901L783 901L783 901L743 901L743 901L704 901L704 901L665 901L665 901L626 901L626 901L587 901L587 901L548 901L548 901L509 901L509 901L470 901L470 901L430 901L430 901L391 901L391 901L352 901L352 901L313 901L313 901L274 901L274 901L235 901L235 901L196 901L196 901L157 901L157 901L117 901L117 901L78 901L78 901L39 901L39 901L0 901Z" fill="#b2ba2e"></path><path d="M0 522L39 522L39 542L78 542L78 450L117 450L117 459L157 459L157 548L196 548L196 288L235 288L235 447L274 447L274 476L313 476L313 296L352 296L352 474L391 474L391 477L430 477L430 427L470 427L470 539L509 539L509 516L548 516L548 378L587 378L587 550L626 550L626 295L665 295L665 377L704 377L704 382L743 382L743 353L783 353L783 508L822 508L822 398L861 398L861 526L900 526L900 293L900 901L900 901L861 901L861 901L822 901L822 901L783 901L783 901L743 901L743 901L704 901L704 901L665 901L665 901L626 901L626 901L587 901L587 901L548 901L548 901L509 901L509 901L470 901L470 901L430 901L430 901L391 901L391 901L352 901L352 901L313 901L313 901L274 901L274 901L235 901L235 901L196 901L196 901L157 901L157 901L117 901L117 901L78 901L78 901L39 901L39 901L0 901Z" fill="#a6ae30"></path><path d="M0 534L39 534L39 599L78 599L78 602L117 602L117 546L157 546L157 529L196 529L196 451L235 451L235 388L274 388L274 353L313 353L313 588L352 588L352 361L391 361L391 372L430 372L430 517L470 517L470 604L509 604L509 499L548 499L548 604L587 604L587 493L626 493L626 603L665 603L665 387L704 387L704 552L743 552L743 432L783 432L783 476L822 476L822 437L861 437L861 406L900 406L900 412L900 901L900 901L861 901L861 901L822 901L822 901L783 901L783 901L743 901L743 901L704 901L704 901L665 901L665 901L626 901L626 901L587 901L587 901L548 901L548 901L509 901L509 901L470 901L470 901L430 901L430 901L391 901L391 901L352 901L352 901L313 901L313 901L274 901L274 901L235 901L235 901L196 901L196 901L157 901L157 901L117 901L117 901L78 901L78 901L39 901L39 901L0 901Z" fill="#9ba331"></path><path d="M0 617L39 617L39 651L78 651L78 466L117 466L117 584L157 584L157 437L196 437L196 420L235 420L235 632L274 632L274 455L313 455L313 456L352 456L352 502L391 502L391 641L430 641L430 531L470 531L470 459L509 459L509 616L548 616L548 419L587 419L587 639L626 639L626 490L665 490L665 527L704 527L704 547L743 547L743 586L783 586L783 583L822 583L822 456L861 456L861 643L900 643L900 628L900 901L900 901L861 901L861 901L822 901L822 901L783 901L783 901L743 901L743 901L704 901L704 901L665 901L665 901L626 901L626 901L587 901L587 901L548 901L548 901L509 901L509 901L470 901L470 901L430 901L430 901L391 901L391 901L352 901L352 901L313 901L313 901L274 901L274 901L235 901L235 901L196 901L196 901L157 901L157 901L117 901L117 901L78 901L78 901L39 901L39 901L0 901Z" fill="#8f9732"></path><path d="M0 595L39 595L39 540L78 540L78 532L117 532L117 502L157 502L157 505L196 505L196 527L235 527L235 485L274 485L274 548L313 548L313 696L352 696L352 689L391 689L391 536L430 536L430 580L470 580L470 606L509 606L509 660L548 660L548 518L587 518L587 530L626 530L626 667L665 667L665 673L704 673L704 605L743 605L743 547L783 547L783 666L822 666L822 635L861 635L861 681L900 681L900 555L900 901L900 901L861 901L861 901L822 901L822 901L783 901L783 901L743 901L743 901L704 901L704 901L665 901L665 901L626 901L626 901L587 901L587 901L548 901L548 901L509 901L509 901L470 901L470 901L430 901L430 901L391 901L391 901L352 901L352 901L313 901L313 901L274 901L274 901L235 901L235 901L196 901L196 901L157 901L157 901L117 901L117 901L78 901L78 901L39 901L39 901L0 901Z" fill="#848c33"></path><path d="M0 709L39 709L39 656L78 656L78 704L117 704L117 681L157 681L157 752L196 752L196 728L235 728L235 600L274 600L274 643L313 643L313 639L352 639L352 595L391 595L391 562L430 562L430 697L470 697L470 629L509 629L509 702L548 702L548 633L587 633L587 591L626 591L626 558L665 558L665 675L704 675L704 732L743 732L743 738L783 738L783 575L822 575L822 685L861 685L861 716L900 716L900 607L900 901L900 901L861 901L861 901L822 901L822 901L783 901L783 901L743 901L743 901L704 901L704 901L665 901L665 901L626 901L626 901L587 901L587 901L548 901L548 901L509 901L509 901L470 901L470 901L430 901L430 901L391 901L391 901L352 901L352 901L313 901L313 901L274 901L274 901L235 901L235 901L196 901L196 901L157 901L157 901L117 901L117 901L78 901L78 901L39 901L39 901L0 901Z" fill="#7a8033"></path><path d="M0 691L39 691L39 692L78 692L78 668L117 668L117 670L157 670L157 714L196 714L196 764L235 764L235 710L274 710L274 690L313 690L313 797L352 797L352 662L391 662L391 798L430 798L430 686L470 686L470 758L509 758L509 659L548 659L548 705L587 705L587 735L626 735L626 792L665 792L665 727L704 727L704 623L743 623L743 732L783 732L783 716L822 716L822 691L861 691L861 753L900 753L900 762L900 901L900 901L861 901L861 901L822 901L822 901L783 901L783 901L743 901L743 901L704 901L704 901L665 901L665 901L626 901L626 901L587 901L587 901L548 901L548 901L509 901L509 901L470 901L470 901L430 901L430 901L391 901L391 901L352 901L352 901L313 901L313 901L274 901L274 901L235 901L235 901L196 901L196 901L157 901L157 901L117 901L117 901L78 901L78 901L39 901L39 901L0 901Z" fill="#6f7533"></path><path d="M0 836L39 836L39 830L78 830L78 842L117 842L117 721L157 721L157 709L196 709L196 704L235 704L235 806L274 806L274 844L313 844L313 817L352 817L352 704L391 704L391 836L430 836L430 775L470 775L470 826L509 826L509 719L548 719L548 781L587 781L587 759L626 759L626 731L665 731L665 754L704 754L704 841L743 841L743 720L783 720L783 811L822 811L822 705L861 705L861 701L900 701L900 747L900 901L900 901L861 901L861 901L822 901L822 901L783 901L783 901L743 901L743 901L704 901L704 901L665 901L665 901L626 901L626 901L587 901L587 901L548 901L548 901L509 901L509 901L470 901L470 901L430 901L430 901L391 901L391 901L352 901L352 901L313 901L313 901L274 901L274 901L235 901L235 901L196 901L196 901L157 901L157 901L117 901L117 901L78 901L78 901L39 901L39 901L0 901Z" fill="#656a33"></path><path d="M0 805L39 805L39 854L78 854L78 800L117 800L117 879L157 879L157 820L196 820L196 778L235 778L235 851L274 851L274 786L313 786L313 886L352 886L352 807L391 807L391 774L430 774L430 765L470 765L470 897L509 897L509 784L548 784L548 770L587 770L587 838L626 838L626 892L665 892L665 805L704 805L704 798L743 798L743 783L783 783L783 886L822 886L822 872L861 872L861 767L900 767L900 817L900 901L900 901L861 901L861 901L822 901L822 901L783 901L783 901L743 901L743 901L704 901L704 901L665 901L665 901L626 901L626 901L587 901L587 901L548 901L548 901L509 901L509 901L470 901L470 901L430 901L430 901L391 901L391 901L352 901L352 901L313 901L313 901L274 901L274 901L235 901L235 901L196 901L196 901L157 901L157 901L117 901L117 901L78 901L78 901L39 901L39 901L0 901Z" fill="#5b5f32"></path></svg>