<svg id="visual" viewBox="0 0 900 900" xmlns="http://www.w3.org/2000/svg" xmlns:xlink="http://www.w3.org/1999/xlink" version="1.1"><g stroke-width="15" stroke-linejoin="bevel"><path d="M489 457L513 483L536 407Z" fill="#7d8433" stroke="#2a1107"></path><path d="M536 407L480 376L489 457Z" fill="#5b5f32" stroke="#2a1107"></path><path d="M489 457L462 555L513 483Z" fill="#7d8433" stroke="#2a1107"></path><path d="M399 396L462 555L489 457Z" fill="#bbc42c" stroke="#2a1107"></path><path d="M584 599L646 503L513 483Z" fill="#7d8433" stroke="#2a1107"></path><path d="M513 483L646 503L536 407Z" fill="#5b5f32" stroke="#2a1107"></path><path d="M480 376L399 396L489 457Z" fill="#d6de23" stroke="#2a1107"></path><path d="M646 503L644 360L536 407Z" fill="#717733" stroke="#2a1107"></path><path d="M536 407L602 304L480 376Z" fill="#c8d128" stroke="#2a1107"></path><path d="M644 360L610 309L536 407Z" fill="#5b5f32" stroke="#2a1107"></path><path d="M480 376L427 315L399 396Z" fill="#5b5f32" stroke="#2a1107"></path><path d="M610 309L602 304L536 407Z" fill="#899033" stroke="#2a1107"></path><path d="M462 555L584 599L513 483Z" fill="#d6de23" stroke="#2a1107"></path><path d="M506 224L427 315L480 376Z" fill="#959d32" stroke="#2a1107"></path><path d="M308 396L345 413L350 286Z" fill="#d6de23" stroke="#2a1107"></path><path d="M399 396L345 413L462 555Z" fill="#959d32" stroke="#2a1107"></path><path d="M584 599L648 604L646 503Z" fill="#959d32" stroke="#2a1107"></path><path d="M761 318L684 306L644 360Z" fill="#5b5f32" stroke="#2a1107"></path><path d="M375 596L484 649L462 555Z" fill="#7d8433" stroke="#2a1107"></path><path d="M462 555L484 649L584 599Z" fill="#5b5f32" stroke="#2a1107"></path><path d="M584 599L536 673L648 604Z" fill="#c8d128" stroke="#2a1107"></path><path d="M748 446L644 360L646 503Z" fill="#959d32" stroke="#2a1107"></path><path d="M644 360L684 306L610 309Z" fill="#717733" stroke="#2a1107"></path><path d="M610 309L684 306L602 304Z" fill="#717733" stroke="#2a1107"></path><path d="M313 565L375 596L462 555Z" fill="#bbc42c" stroke="#2a1107"></path><path d="M657 743L674 609L648 604Z" fill="#959d32" stroke="#2a1107"></path><path d="M648 604L674 609L646 503Z" fill="#666b33" stroke="#2a1107"></path><path d="M769 551L748 446L646 503Z" fill="#7d8433" stroke="#2a1107"></path><path d="M492 181L506 224L563 148Z" fill="#a1aa31" stroke="#2a1107"></path><path d="M602 304L506 224L480 376Z" fill="#5b5f32" stroke="#2a1107"></path><path d="M350 286L345 413L399 396Z" fill="#a1aa31" stroke="#2a1107"></path><path d="M345 413L313 565L462 555Z" fill="#aeb72f" stroke="#2a1107"></path><path d="M350 286L399 396L427 315Z" fill="#c8d128" stroke="#2a1107"></path><path d="M484 649L536 673L584 599Z" fill="#666b33" stroke="#2a1107"></path><path d="M257 318L292 408L308 396Z" fill="#aeb72f" stroke="#2a1107"></path><path d="M308 396L292 408L345 413Z" fill="#c8d128" stroke="#2a1107"></path><path d="M371 202L350 286L427 315Z" fill="#5b5f32" stroke="#2a1107"></path><path d="M292 408L313 565L345 413Z" fill="#a1aa31" stroke="#2a1107"></path><path d="M392 713L487 695L484 649Z" fill="#666b33" stroke="#2a1107"></path><path d="M484 649L487 695L536 673Z" fill="#a1aa31" stroke="#2a1107"></path><path d="M392 713L484 649L375 596Z" fill="#d6de23" stroke="#2a1107"></path><path d="M487 695L503 705L536 673Z" fill="#c8d128" stroke="#2a1107"></path><path d="M536 673L657 743L648 604Z" fill="#a1aa31" stroke="#2a1107"></path><path d="M674 609L769 551L646 503Z" fill="#bbc42c" stroke="#2a1107"></path><path d="M748 446L761 318L644 360Z" fill="#a1aa31" stroke="#2a1107"></path><path d="M563 148L506 224L602 304Z" fill="#5b5f32" stroke="#2a1107"></path><path d="M795 350L761 318L748 446Z" fill="#bbc42c" stroke="#2a1107"></path><path d="M563 148L602 304L632 151Z" fill="#bbc42c" stroke="#2a1107"></path><path d="M506 224L371 202L427 315Z" fill="#899033" stroke="#2a1107"></path><path d="M842 421L795 350L748 446Z" fill="#a1aa31" stroke="#2a1107"></path><path d="M492 181L371 202L506 224Z" fill="#7d8433" stroke="#2a1107"></path><path d="M350 286L257 318L308 396Z" fill="#bbc42c" stroke="#2a1107"></path><path d="M371 202L257 318L350 286Z" fill="#a1aa31" stroke="#2a1107"></path><path d="M292 408L241 535L313 565Z" fill="#7d8433" stroke="#2a1107"></path><path d="M290 633L392 713L375 596Z" fill="#c8d128" stroke="#2a1107"></path><path d="M487 695L512 762L503 705Z" fill="#7d8433" stroke="#2a1107"></path><path d="M197 418L241 535L292 408Z" fill="#959d32" stroke="#2a1107"></path><path d="M313 565L290 633L375 596Z" fill="#a1aa31" stroke="#2a1107"></path><path d="M632 151L602 304L638 152Z" fill="#899033" stroke="#2a1107"></path><path d="M492 181L456 75L371 202Z" fill="#666b33" stroke="#2a1107"></path><path d="M241 535L290 633L313 565Z" fill="#bbc42c" stroke="#2a1107"></path><path d="M638 152L602 304L684 306Z" fill="#d6de23" stroke="#2a1107"></path><path d="M638 152L684 306L777 206Z" fill="#c8d128" stroke="#2a1107"></path><path d="M799 252L684 306L761 318Z" fill="#d6de23" stroke="#2a1107"></path><path d="M769 551L842 421L748 446Z" fill="#bbc42c" stroke="#2a1107"></path><path d="M483 803L512 762L487 695Z" fill="#717733" stroke="#2a1107"></path><path d="M503 705L512 762L536 673Z" fill="#717733" stroke="#2a1107"></path><path d="M674 609L817 592L769 551Z" fill="#aeb72f" stroke="#2a1107"></path><path d="M512 762L657 743L536 673Z" fill="#899033" stroke="#2a1107"></path><path d="M756 738L817 592L674 609Z" fill="#5b5f32" stroke="#2a1107"></path><path d="M769 551L900 498L842 421Z" fill="#a1aa31" stroke="#2a1107"></path><path d="M257 318L197 418L292 408Z" fill="#959d32" stroke="#2a1107"></path><path d="M900 245L799 252L795 350Z" fill="#aeb72f" stroke="#2a1107"></path><path d="M795 350L799 252L761 318Z" fill="#7d8433" stroke="#2a1107"></path><path d="M799 252L777 206L684 306Z" fill="#717733" stroke="#2a1107"></path><path d="M392 713L483 803L487 695Z" fill="#959d32" stroke="#2a1107"></path><path d="M512 762L627 816L657 743Z" fill="#717733" stroke="#2a1107"></path><path d="M390 845L483 803L392 713Z" fill="#d6de23" stroke="#2a1107"></path><path d="M725 761L756 738L657 743Z" fill="#bbc42c" stroke="#2a1107"></path><path d="M657 743L756 738L674 609Z" fill="#666b33" stroke="#2a1107"></path><path d="M627 816L725 761L657 743Z" fill="#717733" stroke="#2a1107"></path><path d="M756 738L845 642L817 592Z" fill="#7d8433" stroke="#2a1107"></path><path d="M817 592L900 498L769 551Z" fill="#7d8433" stroke="#2a1107"></path><path d="M900 572L900 498L817 592Z" fill="#959d32" stroke="#2a1107"></path><path d="M842 421L900 387L795 350Z" fill="#899033" stroke="#2a1107"></path><path d="M900 498L900 387L842 421Z" fill="#959d32" stroke="#2a1107"></path><path d="M799 252L820 164L777 206Z" fill="#959d32" stroke="#2a1107"></path><path d="M708 95L632 151L638 152Z" fill="#aeb72f" stroke="#2a1107"></path><path d="M540 46L563 148L632 151Z" fill="#a1aa31" stroke="#2a1107"></path><path d="M540 46L456 75L563 148Z" fill="#7d8433" stroke="#2a1107"></path><path d="M563 148L456 75L492 181Z" fill="#d6de23" stroke="#2a1107"></path><path d="M169 244L163 328L257 318Z" fill="#959d32" stroke="#2a1107"></path><path d="M211 751L296 745L290 633Z" fill="#7d8433" stroke="#2a1107"></path><path d="M290 633L296 745L392 713Z" fill="#bbc42c" stroke="#2a1107"></path><path d="M161 644L290 633L241 535Z" fill="#c8d128" stroke="#2a1107"></path><path d="M725 761L743 760L756 738Z" fill="#899033" stroke="#2a1107"></path><path d="M756 738L900 714L845 642Z" fill="#a1aa31" stroke="#2a1107"></path><path d="M768 806L743 760L725 761Z" fill="#d6de23" stroke="#2a1107"></path><path d="M257 318L163 328L197 418Z" fill="#d6de23" stroke="#2a1107"></path><path d="M122 575L161 644L241 535Z" fill="#7d8433" stroke="#2a1107"></path><path d="M169 244L257 318L229 123Z" fill="#959d32" stroke="#2a1107"></path><path d="M483 803L627 816L512 762Z" fill="#7d8433" stroke="#2a1107"></path><path d="M900 603L900 572L817 592Z" fill="#7d8433" stroke="#2a1107"></path><path d="M820 164L708 95L777 206Z" fill="#a1aa31" stroke="#2a1107"></path><path d="M777 206L708 95L638 152Z" fill="#717733" stroke="#2a1107"></path><path d="M591 0L540 46L634 0Z" fill="#7d8433" stroke="#2a1107"></path><path d="M900 714L900 603L845 642Z" fill="#717733" stroke="#2a1107"></path><path d="M845 642L900 603L817 592Z" fill="#666b33" stroke="#2a1107"></path><path d="M443 0L381 68L456 75Z" fill="#a1aa31" stroke="#2a1107"></path><path d="M456 75L381 68L371 202Z" fill="#aeb72f" stroke="#2a1107"></path><path d="M900 222L820 164L799 252Z" fill="#5b5f32" stroke="#2a1107"></path><path d="M229 123L257 318L371 202Z" fill="#c8d128" stroke="#2a1107"></path><path d="M121 560L241 535L197 418Z" fill="#5b5f32" stroke="#2a1107"></path><path d="M59 505L121 560L197 418Z" fill="#899033" stroke="#2a1107"></path><path d="M62 409L197 418L163 328Z" fill="#666b33" stroke="#2a1107"></path><path d="M296 745L390 845L392 713Z" fill="#a1aa31" stroke="#2a1107"></path><path d="M483 803L547 900L627 816Z" fill="#899033" stroke="#2a1107"></path><path d="M257 807L390 845L296 745Z" fill="#7d8433" stroke="#2a1107"></path><path d="M169 244L124 320L163 328Z" fill="#d6de23" stroke="#2a1107"></path><path d="M900 387L900 245L795 350Z" fill="#959d32" stroke="#2a1107"></path><path d="M121 560L122 575L241 535Z" fill="#899033" stroke="#2a1107"></path><path d="M627 816L768 806L725 761Z" fill="#aeb72f" stroke="#2a1107"></path><path d="M743 760L768 806L756 738Z" fill="#aeb72f" stroke="#2a1107"></path><path d="M722 900L768 806L627 816Z" fill="#c8d128" stroke="#2a1107"></path><path d="M900 245L900 222L799 252Z" fill="#bbc42c" stroke="#2a1107"></path><path d="M146 783L211 751L161 644Z" fill="#717733" stroke="#2a1107"></path><path d="M161 644L211 751L290 633Z" fill="#d6de23" stroke="#2a1107"></path><path d="M381 68L229 123L371 202Z" fill="#c8d128" stroke="#2a1107"></path><path d="M169 244L135 231L124 320Z" fill="#959d32" stroke="#2a1107"></path><path d="M229 123L135 231L169 244Z" fill="#c8d128" stroke="#2a1107"></path><path d="M634 0L632 151L708 95Z" fill="#899033" stroke="#2a1107"></path><path d="M634 0L540 46L632 151Z" fill="#a1aa31" stroke="#2a1107"></path><path d="M540 46L443 0L456 75Z" fill="#d6de23" stroke="#2a1107"></path><path d="M211 751L257 807L296 745Z" fill="#bbc42c" stroke="#2a1107"></path><path d="M591 0L443 0L540 46Z" fill="#bbc42c" stroke="#2a1107"></path><path d="M381 68L219 80L229 123Z" fill="#a1aa31" stroke="#2a1107"></path><path d="M445 900L483 803L390 845Z" fill="#5b5f32" stroke="#2a1107"></path><path d="M445 900L547 900L483 803Z" fill="#899033" stroke="#2a1107"></path><path d="M725 0L634 0L708 95Z" fill="#5b5f32" stroke="#2a1107"></path><path d="M845 114L708 95L820 164Z" fill="#717733" stroke="#2a1107"></path><path d="M768 806L900 714L756 738Z" fill="#bbc42c" stroke="#2a1107"></path><path d="M900 122L845 114L820 164Z" fill="#d6de23" stroke="#2a1107"></path><path d="M398 900L445 900L390 845Z" fill="#899033" stroke="#2a1107"></path><path d="M547 900L630 900L627 816Z" fill="#5b5f32" stroke="#2a1107"></path><path d="M0 334L62 409L124 320Z" fill="#a1aa31" stroke="#2a1107"></path><path d="M124 320L62 409L163 328Z" fill="#959d32" stroke="#2a1107"></path><path d="M121 560L0 593L122 575Z" fill="#899033" stroke="#2a1107"></path><path d="M443 0L388 0L381 68Z" fill="#c8d128" stroke="#2a1107"></path><path d="M62 409L59 505L197 418Z" fill="#d6de23" stroke="#2a1107"></path><path d="M92 767L146 783L161 644Z" fill="#959d32" stroke="#2a1107"></path><path d="M225 900L398 900L390 845Z" fill="#666b33" stroke="#2a1107"></path><path d="M318 0L219 80L381 68Z" fill="#717733" stroke="#2a1107"></path><path d="M229 123L75 111L135 231Z" fill="#d6de23" stroke="#2a1107"></path><path d="M822 0L725 0L708 95Z" fill="#a1aa31" stroke="#2a1107"></path><path d="M388 0L318 0L381 68Z" fill="#d6de23" stroke="#2a1107"></path><path d="M900 222L900 122L820 164Z" fill="#7d8433" stroke="#2a1107"></path><path d="M845 114L822 0L708 95Z" fill="#7d8433" stroke="#2a1107"></path><path d="M630 900L722 900L627 816Z" fill="#899033" stroke="#2a1107"></path><path d="M768 806L900 818L900 714Z" fill="#899033" stroke="#2a1107"></path><path d="M211 751L202 855L257 807Z" fill="#aeb72f" stroke="#2a1107"></path><path d="M257 807L225 900L390 845Z" fill="#7d8433" stroke="#2a1107"></path><path d="M68 668L161 644L122 575Z" fill="#959d32" stroke="#2a1107"></path><path d="M0 593L68 668L122 575Z" fill="#959d32" stroke="#2a1107"></path><path d="M146 783L202 855L211 751Z" fill="#c8d128" stroke="#2a1107"></path><path d="M836 900L900 818L768 806Z" fill="#c8d128" stroke="#2a1107"></path><path d="M62 409L0 503L59 505Z" fill="#666b33" stroke="#2a1107"></path><path d="M59 505L0 593L121 560Z" fill="#aeb72f" stroke="#2a1107"></path><path d="M0 334L0 503L62 409Z" fill="#aeb72f" stroke="#2a1107"></path><path d="M900 0L822 0L845 114Z" fill="#a1aa31" stroke="#2a1107"></path><path d="M32 230L124 320L135 231Z" fill="#c8d128" stroke="#2a1107"></path><path d="M0 291L0 334L124 320Z" fill="#aeb72f" stroke="#2a1107"></path><path d="M75 111L32 230L135 231Z" fill="#959d32" stroke="#2a1107"></path><path d="M75 111L229 123L219 80Z" fill="#d6de23" stroke="#2a1107"></path><path d="M68 668L92 767L161 644Z" fill="#d6de23" stroke="#2a1107"></path><path d="M146 783L127 900L202 855Z" fill="#5b5f32" stroke="#2a1107"></path><path d="M0 781L92 767L68 668Z" fill="#bbc42c" stroke="#2a1107"></path><path d="M127 900L225 900L202 855Z" fill="#aeb72f" stroke="#2a1107"></path><path d="M202 855L225 900L257 807Z" fill="#d6de23" stroke="#2a1107"></path><path d="M0 503L0 593L59 505Z" fill="#bbc42c" stroke="#2a1107"></path><path d="M722 900L836 900L768 806Z" fill="#aeb72f" stroke="#2a1107"></path><path d="M32 230L0 291L124 320Z" fill="#d6de23" stroke="#2a1107"></path><path d="M193 0L157 35L219 80Z" fill="#959d32" stroke="#2a1107"></path><path d="M318 0L193 0L219 80Z" fill="#899033" stroke="#2a1107"></path><path d="M0 81L75 111L26 0Z" fill="#899033" stroke="#2a1107"></path><path d="M157 35L75 111L219 80Z" fill="#a1aa31" stroke="#2a1107"></path><path d="M32 230L0 228L0 291Z" fill="#aeb72f" stroke="#2a1107"></path><path d="M0 593L0 649L68 668Z" fill="#717733" stroke="#2a1107"></path><path d="M75 111L0 228L32 230Z" fill="#717733" stroke="#2a1107"></path><path d="M900 122L900 0L845 114Z" fill="#bbc42c" stroke="#2a1107"></path><path d="M836 900L900 900L900 818Z" fill="#7d8433" stroke="#2a1107"></path><path d="M67 900L127 900L92 767Z" fill="#bbc42c" stroke="#2a1107"></path><path d="M92 767L127 900L146 783Z" fill="#d6de23" stroke="#2a1107"></path><path d="M0 649L0 781L68 668Z" fill="#bbc42c" stroke="#2a1107"></path><path d="M26 0L75 111L157 35Z" fill="#a1aa31" stroke="#2a1107"></path><path d="M75 111L0 81L0 228Z" fill="#959d32" stroke="#2a1107"></path><path d="M0 846L67 900L92 767Z" fill="#959d32" stroke="#2a1107"></path><path d="M0 781L0 846L92 767Z" fill="#7d8433" stroke="#2a1107"></path><path d="M193 0L26 0L157 35Z" fill="#959d32" stroke="#2a1107"></path><path d="M26 0L0 0L0 81Z" fill="#7d8433" stroke="#2a1107"></path><path d="M0 846L0 900L67 900Z" fill="#7d8433" stroke="#2a1107"></path></g></svg>