<svg id="visual" viewBox="0 0 900 900" xmlns="http://www.w3.org/2000/svg" xmlns:xlink="http://www.w3.org/1999/xlink" version="1.1"><rect x="0" y="0" width="900" height="900" fill="#D6DE23"></rect><defs><linearGradient id="grad1_0" x1="0%" y1="0%" x2="100%" y2="100%"><stop offset="30%" stop-color="#2a1107" stop-opacity="1"></stop><stop offset="70%" stop-color="#2a1107" stop-opacity="1"></stop></linearGradient></defs><defs><linearGradient id="grad1_1" x1="0%" y1="0%" x2="100%" y2="100%"><stop offset="30%" stop-color="#2a1107" stop-opacity="1"></stop><stop offset="70%" stop-color="#98641b" stop-opacity="1"></stop></linearGradient></defs><defs><linearGradient id="grad1_2" x1="0%" y1="0%" x2="100%" y2="100%"><stop offset="30%" stop-color="#d6de23" stop-opacity="1"></stop><stop offset="70%" stop-color="#98641b" stop-opacity="1"></stop></linearGradient></defs><defs><linearGradient id="grad2_0" x1="0%" y1="0%" x2="100%" y2="100%"><stop offset="30%" stop-color="#2a1107" stop-opacity="1"></stop><stop offset="70%" stop-color="#2a1107" stop-opacity="1"></stop></linearGradient></defs><defs><linearGradient id="grad2_1" x1="0%" y1="0%" x2="100%" y2="100%"><stop offset="30%" stop-color="#98641b" stop-opacity="1"></stop><stop offset="70%" stop-color="#2a1107" stop-opacity="1"></stop></linearGradient></defs><defs><linearGradient id="grad2_2" x1="0%" y1="0%" x2="100%" y2="100%"><stop offset="30%" stop-color="#98641b" stop-opacity="1"></stop><stop offset="70%" stop-color="#d6de23" stop-opacity="1"></stop></linearGradient></defs><g transform="translate(900, 0)"><path d="M0 636.4C-85.7 621.2 -171.4 606 -233.1 562.6C-294.7 519.3 -332.4 447.8 -394.6 394.6C-456.8 341.3 -543.6 306.3 -588 243.5C-632.4 180.8 -634.4 90.4 -636.4 0L0 0Z" fill="#c09d17"></path><path d="M0 424.3C-57.1 414.1 -114.3 404 -155.4 375.1C-196.5 346.2 -221.6 298.6 -263 263C-304.5 227.5 -362.4 204.2 -392 162.4C-421.6 120.5 -422.9 60.3 -424.3 0L0 0Z" fill="#633518"></path><path d="M0 212.1C-28.6 207.1 -57.1 202 -77.7 187.5C-98.2 173.1 -110.8 149.3 -131.5 131.5C-152.3 113.8 -181.2 102.1 -196 81.2C-210.8 60.3 -211.5 30.1 -212.1 0L0 0Z" fill="#2a1107"></path></g><g transform="translate(0, 900)"><path d="M0 -636.4C78.7 -608.1 157.3 -579.7 225 -543.2C292.7 -506.7 349.4 -462.1 413.7 -413.7C477.9 -365.2 549.6 -313.1 588 -243.5C626.3 -174 631.4 -87 636.4 0L0 0Z" fill="#c09d17"></path><path d="M0 -424.3C52.4 -405.4 104.9 -386.5 150 -362.2C195.1 -337.8 233 -308 275.8 -275.8C318.6 -243.5 366.4 -208.7 392 -162.4C417.5 -116 420.9 -58 424.3 0L0 0Z" fill="#633518"></path><path d="M0 -212.1C26.2 -202.7 52.4 -193.2 75 -181.1C97.6 -168.9 116.5 -154 137.9 -137.9C159.3 -121.7 183.2 -104.4 196 -81.2C208.8 -58 210.5 -29 212.1 0L0 0Z" fill="#2a1107"></path></g></svg>