<svg id="Layer_1" data-name="Layer 1" xmlns="http://www.w3.org/2000/svg" xmlns:xlink="http://www.w3.org/1999/xlink" viewBox="0 0 34 67.22"><defs><style>.cls-1{fill:none;}.cls-2{clip-path:url(#clip-path);}.cls-3{fill:#fff;opacity:0.1;}</style><clipPath id="clip-path"><rect class="cls-1" y="0.02" width="34" height="67.22"/></clipPath></defs><g class="cls-2"><path class="cls-3" d="M3,69.34C1.2,66.59-.57,63.8.2,60.29c.5-2.23,1.43-2.11,1.8-4.46.46-3-.8-4.64-.06-5.22.91-.7,3.82,1,5.63,3.23a11,11,0,0,1,2.48,8.44C9.78,64.05,8.51,65.73,6,69.1c-.37.49-1,1.33-1.8,1.26C3.59,70.3,3.18,69.71,3,69.34Z"/><path class="cls-3" d="M9.51,73.13c3.25.13,6.55.27,9.2-2.15,1.69-1.54,1.12-2.29,3-3.79,2.34-1.88,4.42-1.63,4.55-2.56.15-1.14-2.82-2.78-5.61-3.25a11,11,0,0,0-8.55,2.07c-1.4,1.12-2.22,3-3.87,6.93-.24.56-.64,1.55-.2,2.18A1.93,1.93,0,0,0,9.51,73.13Z"/><path class="cls-3" d="M24.53,56.28c-3.25.13-6.55.27-9.21-2.15-1.69-1.54-1.11-2.29-3-3.78C10,48.46,7.93,48.72,7.81,47.79c-.16-1.15,2.82-2.79,5.6-3.26A11,11,0,0,1,22,46.6c1.4,1.12,2.23,3,3.88,6.93.24.56.64,1.55.2,2.18A1.93,1.93,0,0,1,24.53,56.28Z"/><path class="cls-3" d="M31.09,52.49c1.74-2.75,3.51-5.53,2.74-9.05C33.34,41.21,32.4,41.34,32,39c-.47-3,.8-4.64.06-5.22-.92-.7-3.83,1.05-5.63,3.23A11,11,0,0,0,24,45.43c.27,1.77,1.53,3.45,4.06,6.82.37.49,1,1.33,1.79,1.26C30.45,53.46,30.85,52.86,31.09,52.49Z"/><path class="cls-3" d="M3,35.72C1.2,33-.57,30.18.2,26.67c.5-2.24,1.43-2.11,1.8-4.46.46-3-.8-4.65-.06-5.22.91-.71,3.82,1,5.63,3.22a11,11,0,0,1,2.48,8.44C9.78,30.43,8.51,32.11,6,35.47c-.37.5-1,1.34-1.8,1.27C3.59,36.68,3.18,36.08,3,35.72Z"/><path class="cls-3" d="M9.51,39.5c3.25.14,6.55.28,9.2-2.14,1.69-1.55,1.12-2.3,3-3.79C24,31.68,26.1,31.94,26.23,31c.15-1.14-2.82-2.79-5.61-3.26a11,11,0,0,0-8.55,2.07c-1.4,1.12-2.22,3.06-3.87,6.93-.24.57-.64,1.56-.2,2.18A1.89,1.89,0,0,0,9.51,39.5Z"/><path class="cls-3" d="M24.53,22.65c-3.25.14-6.55.28-9.21-2.14-1.69-1.55-1.11-2.29-3-3.79C10,14.83,7.93,15.09,7.81,14.16c-.16-1.14,2.82-2.79,5.6-3.26A11,11,0,0,1,22,13c1.4,1.12,2.23,3.06,3.88,6.93.24.57.64,1.56.2,2.18A1.86,1.86,0,0,1,24.53,22.65Z"/><path class="cls-3" d="M31.09,18.87c1.74-2.75,3.51-5.54,2.74-9C33.34,7.59,32.4,7.71,32,5.36c-.47-3,.8-4.65.06-5.22-.92-.71-3.83,1-5.63,3.22A11,11,0,0,0,24,11.8c.27,1.78,1.53,3.46,4.06,6.83.37.49,1,1.33,1.79,1.26C30.45,19.83,30.85,19.24,31.09,18.87Z"/><path class="cls-3" d="M2.93,2.16C1.18-.59-.59-3.38.19-6.89.68-9.13,1.61-9,2-11.35c.46-3-.8-4.65-.06-5.22.91-.71,3.83,1,5.63,3.22A11,11,0,0,1,10-4.91C9.76-3.13,8.5-1.45,6,1.91c-.37.49-1,1.33-1.79,1.27C3.57,3.12,3.16,2.52,2.93,2.16Z"/><path class="cls-3" d="M9.49,5.94c3.25.14,6.55.28,9.21-2.14,1.69-1.55,1.11-2.3,3-3.79C24-1.88,26.09-1.62,26.21-2.55c.16-1.14-2.82-2.79-5.6-3.26a11,11,0,0,0-8.55,2.07C10.65-2.62,9.83-.68,8.18,3.19c-.24.57-.64,1.55-.2,2.18A1.89,1.89,0,0,0,9.49,5.94Z"/></g></svg>