<svg id="visual" viewBox="0 0 900 600" width="900" height="600" xmlns="http://www.w3.org/2000/svg" xmlns:xlink="http://www.w3.org/1999/xlink" version="1.1"><rect x="0" y="0" width="900" height="600" fill="#5B5F32"></rect><path d="M0 306L15 306.2C30 306.3 60 306.7 90 302.8C120 299 150 291 180 291.7C210 292.3 240 301.7 270 307.5C300 313.3 330 315.7 360 310.5C390 305.3 420 292.7 450 289.2C480 285.7 510 291.3 540 297.7C570 304 600 311 630 310.3C660 309.7 690 301.3 720 300C750 298.7 780 304.3 810 309.8C840 315.3 870 320.7 885 323.3L900 326L900 0L885 0C870 0 840 0 810 0C780 0 750 0 720 0C690 0 660 0 630 0C600 0 570 0 540 0C510 0 480 0 450 0C420 0 390 0 360 0C330 0 300 0 270 0C240 0 210 0 180 0C150 0 120 0 90 0C60 0 30 0 15 0L0 0Z" fill="#D6DE23" stroke-linecap="round" stroke-linejoin="miter"></path></svg>