<svg id="visual" viewBox="0 0 900 600" width="900" height="600" xmlns="http://www.w3.org/2000/svg" xmlns:xlink="http://www.w3.org/1999/xlink" version="1.1"><rect x="0" y="0" width="900" height="600" fill="#5B5F32"></rect><path d="M461 0L461.3 10C461.7 20 462.3 40 456.7 60C451 80 439 100 439.8 120C440.7 140 454.3 160 463 180C471.7 200 475.3 220 467.7 240C460 260 441 280 436 300C431 320 440 340 449.7 360C459.3 380 469.7 400 468.5 420C467.3 440 454.7 460 452.5 480C450.3 500 458.7 520 467 540C475.3 560 483.7 580 487.8 590L492 600L0 600L0 590C0 580 0 560 0 540C0 520 0 500 0 480C0 460 0 440 0 420C0 400 0 380 0 360C0 340 0 320 0 300C0 280 0 260 0 240C0 220 0 200 0 180C0 160 0 140 0 120C0 100 0 80 0 60C0 40 0 20 0 10L0 0Z" fill="#D6DE23" stroke-linecap="round" stroke-linejoin="miter"></path></svg>